
<svg version="1.0" xmlns="http://www.w3.org/2000/svg" width="2560.000000pt" height="2560.000000pt" viewBox="0 0 2560.000000 2560.000000" preserveAspectRatio="xMidYMid meet">

<g transform="translate(0.000000,2560.000000) scale(0.100000,-0.100000)" stroke="none">
<path d="M0 12800 l0 -12800 12800 0 12800 0 0 12800 0 12800 -12800 0 -12800
0 0 -12800z m13050 10661 c590 -111 1114 -508 1565 -1186 139 -210 190 -299
395 -690 89 -170 165 -313 169 -318 4 -4 31 48 61 115 538 1227 1189 1910
1941 2039 225 39 519 15 721 -57 372 -133 689 -415 946 -840 227 -376 367
-754 567 -1524 404 -1555 646 -2531 1336 -5385 655 -2706 977 -4018 1279
-5206 194 -763 227 -913 254 -1149 83 -713 0 -1346 -239 -1828 -115 -232 -223
-381 -396 -547 -266 -256 -575 -411 -954 -481 -82 -15 -149 -19 -370 -19 -236
1 -287 4 -405 24 -293 50 -599 142 -895 267 -148 62 -391 183 -915 451 -113
58 -297 153 -410 211 -276 141 -522 267 -905 465 -176 90 -475 244 -665 342
-190 97 -421 217 -515 265 -93 48 -307 158 -475 245 -168 86 -372 192 -455
235 -82 43 -539 279 -1015 525 -476 246 -894 462 -929 481 l-64 33 -256 -133
c-1461 -761 -5183 -2677 -5727 -2949 -438 -219 -772 -342 -1117 -412 -278 -56
-621 -72 -847 -40 -742 106 -1293 584 -1541 1337 -147 445 -186 1012 -108
1590 27 207 49 309 144 683 269 1058 713 2850 1056 4270 83 341 181 749 220
906 38 158 69 291 69 297 0 6 -12 13 -28 15 -26 4 -26 4 5 6 l31 1 31 128 c67
281 449 1854 586 2412 342 1394 800 3186 899 3517 230 765 583 1334 1013 1630
299 206 680 292 1049 238 472 -71 920 -379 1321 -910 212 -282 443 -686 614
-1075 39 -91 75 -169 79 -173 4 -4 58 90 120 210 62 120 144 277 183 348 543
1014 1190 1561 1957 1655 134 16 490 5 620 -19z m6130 -18388 c366 -59 664
-273 824 -591 15 -30 25 -56 23 -58 -8 -8 -659 -305 -661 -302 -2 2 -15 24
-30 49 -34 60 -110 130 -174 163 -231 117 -541 38 -639 -163 l-28 -56 -3 -609
c-3 -683 -4 -674 67 -763 73 -93 199 -151 350 -160 157 -9 299 36 395 127 74
70 98 128 104 253 l5 97 -252 0 -251 0 0 335 0 335 630 0 630 0 0 -456 c0
-420 -2 -464 -20 -556 -87 -427 -410 -723 -903 -830 -138 -30 -455 -32 -592
-5 -553 112 -899 452 -956 942 -7 58 -9 317 -6 725 4 686 3 668 61 839 169
491 786 787 1426 684z m2640 1 c280 -43 515 -167 724 -384 75 -78 86 -94 75
-105 -8 -8 -124 -99 -259 -203 l-245 -190 -35 33 c-153 143 -336 219 -525 219
-131 -1 -199 -25 -270 -98 -102 -104 -100 -253 5 -336 87 -69 202 -109 490
-170 130 -27 299 -81 399 -126 171 -79 334 -217 414 -354 48 -83 92 -221 108
-336 16 -120 6 -308 -21 -404 -102 -363 -434 -629 -913 -732 -83 -18 -136 -22
-287 -22 -163 -1 -197 2 -280 23 -170 42 -299 100 -450 200 -85 56 -247 204
-320 291 l-40 48 253 236 252 236 30 -34 c82 -93 238 -186 390 -232 78 -24
108 -27 225 -28 103 -1 149 3 192 17 133 41 215 155 187 260 -32 121 -210 212
-519 267 -276 50 -475 133 -648 273 -137 111 -256 297 -304 477 -30 113 -33
369 -5 469 44 161 101 262 212 379 262 276 695 397 1165 326z m-17921 -749
c171 -398 320 -744 331 -767 l19 -42 19 44 c11 25 147 338 302 695 155 358
296 683 313 723 l31 72 398 0 398 0 0 -1575 0 -1575 -400 0 -400 0 0 413 c0
353 3 463 26 770 15 196 24 360 21 363 -3 3 -9 4 -14 1 -4 -3 -100 -246 -213
-541 l-205 -536 -275 0 -275 0 -210 540 c-195 503 -245 610 -230 503 3 -21 16
-175 30 -343 23 -275 25 -348 23 -735 l-3 -430 -397 -3 -398 -2 0 1575 0 1575
399 0 398 0 312 -725z m3232 149 l284 -577 284 577 285 576 467 0 467 0 -137
-237 c-76 -131 -323 -558 -549 -950 l-412 -711 -2 -624 -3 -623 -397 -3 -398
-2 0 622 c0 589 -1 625 -19 653 -10 17 -251 436 -536 930 -284 495 -524 910
-531 923 l-14 22 463 0 463 0 285 -576z m3474 552 c189 -37 353 -100 488 -189
199 -130 331 -312 395 -544 l27 -98 0 -725 0 -725 -23 -85 c-27 -97 -85 -226
-132 -295 -152 -221 -413 -374 -745 -437 -103 -20 -152 -21 -802 -25 l-693 -4
0 1576 0 1576 698 -4 c617 -3 707 -5 787 -21z m2939 -4 c261 -57 436 -148 582
-305 192 -206 279 -519 245 -876 -41 -418 -224 -703 -530 -827 -39 -16 -71
-32 -71 -35 0 -3 171 -222 381 -485 209 -263 401 -505 426 -537 l44 -57 -497
2 -498 3 -361 495 -361 495 -72 3 -72 3 0 -501 0 -500 -405 0 -405 0 0 1576 0
1575 748 -4 c718 -4 751 -5 846 -25z m2048 -1065 l3 -1092 33 -67 c51 -103
137 -168 273 -203 81 -21 238 -16 319 11 77 26 167 90 206 147 67 97 64 39 64
1224 l0 1073 405 0 406 0 -4 -1122 c-4 -1222 -1 -1162 -59 -1333 -160 -468
-676 -770 -1268 -742 -607 29 -1046 354 -1163 862 -20 88 -21 118 -24 1213
l-4 1122 405 0 406 0 2 -1093z"/>
<path d="M12523 21483 c-469 -796 -1170 -2027 -1381 -2423 l-61 -116 375 -959
c207 -528 515 -1318 686 -1755 170 -437 336 -862 369 -945 32 -82 83 -213 113
-290 49 -126 55 -137 64 -115 41 104 517 1324 607 1555 62 160 307 786 544
1392 237 606 431 1109 431 1116 0 34 -493 915 -1053 1882 -226 390 -500 855
-527 894 -14 20 -22 10 -167 -236z"/>
<path d="M7983 21307 c-11 -45 -104 -415 -207 -822 -795 -3144 -1792 -7134
-1779 -7121 5 5 306 569 1215 2281 330 622 658 1238 728 1370 70 132 249 470
397 750 149 281 363 686 477 902 l207 391 -96 239 c-116 285 -273 656 -425
1003 -137 312 -480 1072 -489 1082 -4 5 -16 -29 -28 -75z"/>
<path d="M17225 21123 c-208 -453 -417 -928 -617 -1402 -118 -280 -268 -652
-268 -663 0 -12 1221 -2318 2282 -4313 658 -1236 732 -1374 735 -1371 5 4
-192 802 -507 2061 -631 2515 -1178 4693 -1290 5135 -66 261 -139 550 -162
643 -24 92 -45 167 -48 167 -4 0 -60 -116 -125 -257z"/>
<path d="M9810 16538 c-879 -1659 -2754 -5180 -3924 -7367 -251 -469 -455
-855 -454 -857 10 -9 796 386 1683 846 83 43 411 212 730 375 319 163 657 337
750 385 94 48 321 165 505 260 564 290 707 364 1530 788 437 225 906 466 1042
536 231 119 246 129 239 149 -5 12 -124 319 -266 682 -141 363 -339 872 -440
1130 -101 259 -312 801 -470 1205 -158 404 -377 967 -487 1250 -111 283 -229
586 -263 673 l-62 158 -113 -213z"/>
<path d="M15350 16538 c-45 -117 -158 -406 -250 -643 -93 -236 -365 -934 -605
-1550 -240 -616 -552 -1415 -692 -1775 -140 -360 -279 -717 -309 -793 -30 -76
-54 -140 -54 -142 0 -2 89 -49 198 -106 108 -56 251 -130 317 -164 258 -134
2272 -1170 3990 -2052 1669 -858 1785 -917 1908 -969 l77 -33 -16 32 c-10 18
-84 158 -167 312 -600 1122 -1864 3490 -2274 4260 -273 512 -569 1067 -658
1235 -176 331 -798 1503 -1155 2175 -122 231 -224 421 -225 423 -1 1 -39 -94
-85 -210z"/>
<path d="M9920 3481 l0 -831 236 0 c264 0 333 10 422 61 29 16 66 48 82 71 60
82 60 87 60 702 0 336 -4 575 -10 596 -16 60 -67 128 -117 160 -90 57 -124 63
-410 68 l-263 4 0 -831z"/>
<path d="M12760 3950 l0 -360 263 0 c283 0 330 6 411 54 227 133 214 501 -22
620 -78 39 -138 46 -402 46 l-250 0 0 -360z"/>
</g>
<style>
  path { fill: #FFF; }
  @media (prefers-color-scheme: dark) {
    path { fill: #000; }
  }
</style>
</svg>
